<svg xmlns="http://www.w3.org/2000/svg" enable-background="new 0 0 50 50" viewBox="0 0 50 50" id="api-programming"><path fill="#494949" d="M45.25076,28.21496c0.19923-3.89306,0.39847-7.78612,0.5977-11.67919
				c0.20942-4.092,0.4185-8.19988,0.17697-12.28558c-0.07823-1.32336-1.15356-2.37894-2.47923-2.38284
				c-1.87149-0.00551-3.84325,0.41615-5.66312,0.31358C35.91499,2.07,33.97837,1.61137,32.00976,1.5101
				c-4.80833-0.24735-7.28891,1.47727-24.74971,0.78834C5.79631,2.2407,4.60691,3.45273,4.67632,4.91596
				c0.22005,4.63883-0.04047,8.26035-0.8101,23.299C17.73805,28.5253,31.41685,27.1439,45.25076,28.21496z"></path><path fill="#D7D7D7" d="M7.02146,27.93273c0.51257-11.30004,0.86095-17.10404,0.6748-22.50858
				c6.08606,0.26,11.96564,0.31304,18.01416-0.41226c11.34232-1.3696,7.57793,0.95191,15.55908,0.07551
				c0.62646-0.06889,1.22559-0.13503,1.78564-0.16039c0.24331,5.41532-0.11032,10.9544-0.64502,22.74117
				C30.51317,26.95231,18.99087,27.99738,7.02146,27.93273z"></path><path fill="#494949" d="M40.2854,34.24236c-20.79539-0.20311,5.82835,0.13236-30.93544,0.03969
				c-3.34958-0.00844-6.41758-2.50618-7.66547-6.37314c-0.08641-0.26778-0.15049-0.49674-0.18449-0.67243
				c15.71103,0.29003,30.93288-0.08068,46.68699,0.00335C48.11654,28.1526,45.57772,34.29405,40.2854,34.24236z"></path><path fill="#F34B43" d="M25.22813,15.12492c0-0.69135-0.44711-1.836-0.74437-2.45592
				c0.4097-0.44627,1.10702-1.14521,0.70168-1.52667c-1.55223-1.52235-1.18865-1.38699-2.50332-0.54047
				c-0.69146-0.46099-1.60916-0.82298-2.30895-0.99092c-0.04354-2.08784-0.25496-1.77279-1.6452-1.75424
				c-1.00843,0.02019-0.77829,0.03962-1.16631,1.6215c-0.76807,0.12325-1.51243,0.37929-2.19516,0.74908
				c-1.5272-1.50654-1.50534-1.13934-2.47016-0.13748c-0.68122,0.68122-0.55466,0.54958,0.31293,1.94387
				c-0.42427,0.51264-1.03832,1.43698-1.03832,2.10508c-0.62102,0.00604-1.86523-0.00622-1.83958,0.58318
				c0.00475,0.35559,0.00946,0.70643,0.01421,1.06202c0,0.23706,0.00949,0.48358,0.10432,0.71592
				c0.01895,0.02844,0.03319,0.05689,0.06164,0.08534c0.0237,0.01421,0.06635,0.0237,0.09955,0.03319
				c2.72267,0.63249,0.88026-0.17203,2.15251,2.47013c-0.56811,0.59022-1.36806,1.38184-0.95298,1.79692
				c1.5946,1.53436,1.14354,1.3902,2.70719,0.41723c0.57678,0.40194,1.18672,0.69251,2.10036,0.86761
				c0.02025,2.36116,0.25698,2.01488,1.64992,1.99604c1.0133,0,0.78954-0.01173,1.24218-1.93915
				c0.67324-0.10429,1.32278-0.31291,1.91542-0.63056c0.50472,0.5103,1.49939,1.56308,1.9439,1.10467
				c1.55904-1.65065,1.45047-1.03774,0.28446-2.93479c0.49314-0.50429,0.82759-1.03111,1.07626-1.87274
				c0.69183-0.00618,1.94387,0.0088,1.94387-0.59739C26.64336,15.01762,26.75986,15.50359,25.22813,15.12492z M22.25989,16.24873
				c-0.86394,4.45784-7.89632,4.77309-7.25013-1.39427c0.29044-3.10139,6.77565-3.95042,7.3418,0.41638
				C22.38975,15.59552,22.32482,15.92785,22.25989,16.24873z"></path><g><path fill="#D7D7D7" d="M45.21025,48.24716c0.85974,0.07644,1.60763-0.57613,1.63469-1.43884
				c0.73417-23.40701,1.28403-18.12767,1.65355-26.32338c0.03778-0.83794-0.63984-1.52619-1.47829-1.55012
				c-0.87544-0.02499-6.33976,0.48069-15.37369,0.28841c-0.80698-0.01718-1.49618,0.59696-1.53468,1.40321
				c-0.18394,3.8515-0.78229,7.67869-1.04886,11.52839c-0.0952,1.3748-0.61923,15.32643-0.59513,14.55813
				c-0.02634,0.83991,0.64304,1.53858,1.48335,1.54164c0.85395,0.00311,1.71859,0.14277,2.59322,0.19059
				C36.74262,48.67468,41.03304,47.87576,45.21025,48.24716z"></path><path fill="#FFF" d="M46.36609,21.9957c-0.45009,6.24905-0.88684,6.04715-1.18223,15.1652l-0.28535,6.64498
				c-4.76971,0.02716-9.54618,0.48918-14.32269,0.59111c0.71608-18.35616,0.91278-14.82418,1.45402-21.83054
				c4.54548-0.1223,9.08416-0.54355,13.62284-0.57075H46.36609z"></path><path fill="#A8A8A8" d="M38.63568,45.28967c0.13766,0.04491,0.27743,0.12036,0.35799,0.26281
				c0.08128,0.14373,0.08817,0.3293,0.08443,0.50345c-0.00372,0.17273-0.01641,0.35085-0.0828,0.5038
				c-0.10507,0.24205-0.33098,0.37992-0.5553,0.41125s-0.44999-0.02814-0.66914-0.09407
				c-0.18049-0.0543-0.38472-0.13893-0.45104-0.34934c-0.06197-0.19664,0.02683-0.42927,0.05558-0.62678
				c0.02281-0.15667,0.04485-0.26279,0.14854-0.37074C37.8157,45.22629,38.27669,45.17254,38.63568,45.28967z"></path><path fill="#353535" d="M25.4697,14.92537c-0.07031-0.771-0.50732-1.80859-0.68799-2.21094
				c1.60678-1.75021,0.23247-1.76327,0.14697-2.17773c-1.13689-1.13204-1.14136-0.9537-2.24805-0.2334
				c-0.65527-0.40723-1.47461-0.72754-2.06201-0.88721c-0.04443-1.3584-0.1709-1.83984-1.05762-1.83984
				c-2.08262,0-1.82265,0.05561-2.20264,1.6831c-0.67627,0.12402-1.32959,0.34668-1.94678,0.6626
				C14.03136,8.5841,13.7364,8.7992,12.98874,9.62069c-1.0669,1.16851-0.9968,0.94159-0.08594,2.39502
				c-0.27148,0.35107-0.84326,1.1582-0.96045,1.875c-0.7517,0.01176-1.88526,0.06573-1.86279,0.83643l0.01807,1.05713
				c0,1.18715,0.29482,1.06163,1.44922,1.29395c0.22803,0.0459,0.42773,0.08643,0.4375,0.06396
				c0.02674,0.12606-0.09309,0.63668,0.47949,1.89746c-0.49463,0.51074-1.02783,1.08105-1.01904,1.58057
				c0.0067,0.39207,0.30274,0.50962,0.59717,0.8418c1.20108,1.19283,1.15494,0.96988,2.47021,0.1416
				c0.54102,0.36279,1.13965,0.61084,1.8584,0.77051c0.03651,2.19934,0.35337,2.06766,1.8999,2.04053
				c1.21,0,1.05703-0.26152,1.44385-1.97021c0.59131-0.10596,1.14844-0.2876,1.66064-0.54102
				c1.6104,1.62634,1.83683,1.30825,2.63428,0.49609c1.14686-1.17089,0.89773-1.11205-0.04004-2.60107
				c0.44385-0.49023,0.729-0.99023,0.94531-1.65576c0.82861-0.00781,2.01025-0.04199,2.01025-0.8501
				C26.88473,15.04989,27.0388,15.28024,25.4697,14.92537z M24.83542,17.64363l-0.10889,0.00098
				c-0.10986,0.00146-0.20605,0.07422-0.23682,0.1792c-0.25439,0.86426-0.58887,1.33203-1.01318,1.76904
				c-0.07959,0.08203-0.09375,0.20752-0.03418,0.30469c1.01953,1.66714,1.17376,1.13115-0.25342,2.62988
				c-0.021,0.02197-0.04443,0.03662-0.09131,0.03662c-0.10304-0.06906-0.18427,0.19277-1.43848-1.08447l-0.05713-0.05811
				c-0.07764-0.08008-0.19971-0.09668-0.29639-0.04492c-2.1588,1.15833-1.85131-0.16905-2.23145,1.66699
				c-0.19256,0.92596-0.06196,0.90332-1.63672,0.90332c-0.40039,0-0.55029,0-0.56982-1.77979
				c-0.00146-0.11865-0.08594-0.22021-0.20264-0.24268c-2.60882-0.50421-1.46724-1.38402-2.86133-0.45605
				c-0.66842,0.44523-0.56229,0.48022-1.40918-0.36084c-0.37795-0.38452-0.44845-0.39591-0.44971-0.49609
				c-0.00537-0.3125,0.58594-0.92285,0.93945-1.28711l0.05859-0.06055c0.07275-0.07471,0.09082-0.18701,0.0459-0.28125
				c-0.48584-1.02051-0.49463-1.48682-0.49902-1.7373c-0.01486-0.78369-0.7329-0.51702-1.81689-0.8667
				c-0.10598-0.27466-0.1117-1.69538-0.05859-1.75049c0.21777-0.22656,1.06348-0.23535,1.47021-0.23926l0.08984-0.00098
				c0.13721-0.00146,0.24707-0.11328,0.24707-0.25c0-0.52295,0.49219-1.35352,0.97998-1.94482
				c0.06787-0.08252,0.07617-0.19922,0.02002-0.29004c-0.87314-1.42402-0.91533-1.00916-0.0625-1.9458
				c0.56007-0.61598,0.54709-0.81375,1.83301,0.44922c0.07861,0.07764,0.19824,0.09326,0.29492,0.0415
				c0.66504-0.3623,1.37646-0.60547,2.11523-0.72266c0.09961-0.01611,0.18018-0.08984,0.20361-0.18799
				c0.38657-1.57977,0.01418-1.46094,1.75537-1.46094c0.41162,0,0.52246,0,0.56347,1.54297
				c0.00294,0.11377,0.08301,0.21094,0.19385,0.23682c0.60352,0.13916,1.56104,0.51123,2.22314,0.95215
				c0.08252,0.0542,0.18945,0.05615,0.27197,0.00342c1.21604-0.76678,0.73687-0.91274,2.19971,0.51172
				c0.32047,0.30766-0.91478,1.11184-0.75391,1.45166c0.34717,0.73291,0.72021,1.78076,0.72021,2.35059
				c0,0.11523,0.07861,0.21533,0.18994,0.24268c1.43314,0.35245,1.21884-0.09658,1.25537,1.92871
				C26.42477,17.62947,25.26999,17.63973,24.83542,17.64363z"></path><path fill="#353535" d="M18.69089 11.96541c-5.55928 0-5.00908 7.82861-.354 7.82861C23.42286 19.79403 24.35352 11.96541 18.69089 11.96541zM18.33688 19.29403c-1.83745 0-3.39541-1.42536-3.08008-4.4126.11523-1.09424 1.67285-2.41602 3.43408-2.41602C23.6881 12.46541 22.76216 19.29403 18.33688 19.29403zM45.65134 21.74569c-4.53524.0274-9.10635.44901-13.62842.5708-.36601.00978-.14564.07235-.66211 4.58643-.28711 2.5083-.53516 4.6748-1.03516 17.48438-.00244.06885.02344.13574.07178.18506.04688.04785.11133.07471.17822.07471.00195 0 .00342 0 .00537 0 2.16895-.04639 4.37207-.16846 6.50244-.28711 2.56348-.14209 5.21484-.28906 7.81641-.3042.1333-.00098.24268-.10596.24854-.23926l.28564-6.64746C45.94104 21.51564 47.81099 21.81883 45.65134 21.74569zM44.93405 37.14998l-.27539 6.40771c-2.53711.02197-5.11084.16504-7.60303.30322-2.03906.11328-4.14502.22998-6.21973.28027.69825-17.81233.90141-14.67643 1.42578-21.33105.10917-.00318 13.72584-.55938 13.83545-.56445C45.63094 28.54281 45.23095 28.00242 44.93405 37.14998z"></path><path fill="#353535" d="M46.9487,18.43367c-0.14819,0-0.38812,0.0097-0.69763,0.0246
				c0.24818-4.85021,0.54599-9.63038,0.27332-14.23749c-0.09424-1.5957-1.40137-2.84863-3.01367-2.85352
				c-3.27645,0-3.3543,0.72463-8.45215-0.01465c-8.32762-1.20205-7.33109,1.25329-27.77881,0.44629L7.16013,1.79647
				c-1.69706,0-3.06451,1.41791-2.9834,3.14355c0.23373,4.9253-0.13063,10.14404-0.73663,21.82849
				c-0.65161-0.00989-1.29724-0.02039-1.93085-0.0321c-0.15137,0.01123-0.29492,0.06299-0.39209,0.17822
				c-0.09717,0.11572-0.13672,0.26904-0.10791,0.41699c0.03711,0.19141,0.10547,0.43994,0.19922,0.73047
				c1.29443,4.01074,4.56592,6.71094,8.14014,6.71973c4.44863,0.01122,14.66903,0.03442,19.0918-0.00745
				c-0.08632,2.05078-0.47217,11.80858-0.47217,11.92297h-0.00049c0.01821,0.10006-0.06912,0.81116,0.57275,1.46387
				c0.375,0.38086,0.875,0.59131,1.40869,0.59326c2.02582,0.00819,1.64695,0.47126,8.55664,0.06201
				c2.26904-0.13525,4.71729-0.24365,6.66016-0.07129c1.16455,0.09814,2.14307-0.7793,2.17822-1.92139
				c0.71347-22.72827,1.30153-18.51532,1.65381-26.31641C49.04493,19.45096,48.24202,18.46771,46.9487,18.43367z M5.17575,4.89266
				C5.12447,3.81289,5.934,2.79793,7.23386,2.79793h0.00684c20.17467,0.79613,19.67077-1.60945,27.6748-0.45557
				c5.23934,0.75878,5.40279,0.0249,8.62842,0.0249h0.00098c1.04785,0.00293,1.91797,0.84326,1.98145,1.91211
				c0.27086,4.57986-0.0292,9.34206-0.27948,14.23016c-0.5871,0.03082-1.30829,0.0672-2.16748,0.10358
				c0.27264-6.02832,0.396-9.89581,0.22528-13.69751c-0.00293-0.06641-0.03174-0.12842-0.08105-0.17334
				c-0.04883-0.04443-0.10986-0.0752-0.17969-0.06494c-2.18932,0.09743-4.45645,0.747-7.82568,0.03027
				C28.7079,3.31911,26.66559,5.9876,7.707,5.17391C7.63669,5.17147,7.56979,5.19735,7.51999,5.24617
				C7.47067,5.29549,7.44382,5.36287,7.44626,5.4327c0.18801,5.45914-0.19652,12.20105-0.62305,21.37775
				c-0.80804-0.00793-1.60358-0.01697-2.38251-0.02747C5.16018,12.91419,5.3869,9.34021,5.17575,4.89266z M29.0715,26.78926
				c-7.43294,0.04558-14.36575,0.09326-21.74823,0.02588c0.37964-8.1666,0.80055-15.68029,0.63177-21.13
				c6.01021,0.25142,11.82839,0.28987,17.78516-0.42529c3.55291-0.42852,6.46059-0.68464,9.37402-0.06348
				c3.31351,0.70629,5.56212,0.13178,7.70215-0.00586c0.15381,3.70978,0.02905,7.53784-0.2384,13.44287
				c-3.69988,0.1459-7.25805,0.16713-10.96423,0.08936c-1.07178,0-1.95117,0.82568-2.00146,1.87988
				C29.51364,22.66445,29.2908,24.75814,29.0715,26.78926z M9.35153,33.78182c-3.14063-0.00781-6.03027-2.42969-7.19141-6.02686
				c-0.00049-0.00195-0.00146-0.00439-0.00195-0.00684c9.0932,0.15684,17.80837,0.09689,26.80902,0.04181
				c-0.15265,1.42896-0.30273,2.88318-0.40326,4.33026c-0.01611,0.23285-0.04474,0.83508-0.08057,1.65289
				C25.96231,33.79671,20.66568,33.80977,9.35153,33.78182z M47.54245,25.92733c-0.32178,2.5459-0.72217,5.71436-1.19775,20.86523
				c-0.0166,0.53613-0.4502,0.95654-1.08057,0.95654c-0.00342,0-0.00635,0-0.00928,0
				c-2.00538-0.1792-4.50391-0.06787-6.80811,0.06885c-10.93127,0.65017-9.51278-0.19102-9.39795-3.15332
				c0.14404-3.72607,0.44385-11.47998,0.51318-12.4751c0.11768-1.70313,0.30469-3.43506,0.48535-5.10986
				c0.22656-2.10254,0.46094-4.27637,0.56396-6.4292c0.0249-0.52002,0.46484-0.92725,1.02393-0.92725h0.00049
				c6.8335,0.146,11.64551-0.10889,13.94873-0.22949C48.34571,19.35021,48.40867,19.06995,47.54245,25.92733z"></path><path fill="#353535" d="M37.34323 45.35701c-.19439.20241-.34696.97589-.26172 1.24561.21096.66984 2.2078 1.19569 2.24658-.54102C39.35899 44.7145 37.86509 44.8135 37.34323 45.35701zM38.40475 46.72322c-.20045.02871-.78947-.0904-.84668-.271-.03645-.11565.03576-.32223.06494-.51514.08408-.57328.9988-.53603 1.15283-.26172C38.88252 45.86433 38.92533 46.65084 38.40475 46.72322zM39.28073 21.04696c.00391 0 .0083 0 .0127-.00049.75488-.03906 1.52441-.06396 2.28809-.07471.13818-.00195.24854-.11523.24658-.25342-.00244-.13818-.12695-.25684-.25342-.24658-.77002.01074-1.5459.03613-2.30664.07568-.13818.00684-.24414.12451-.23682.26221C39.03806 20.94344 39.14841 21.04696 39.28073 21.04696zM38.27048 21.09822c.1377-.00146.24854-.11475.24707-.25293-.00195-.13818-.12109-.24609-.25293-.24707-.54244.00578-.31924-.02195-.87842 0-.13818.00586-.24512.12256-.23975.26025C37.16068 21.19282 37.60606 21.10421 38.27048 21.09822zM35.51169 28.7618c-.11035-.02393-.2251.02734-.27783.12891-.33936.65771-.63818 1.34326-.8877 2.0376-.29609.8216-.53757 1.70898-.91992 2.50195-.06006.12402-.00781.27344.1167.3335.12305.06006.27344.0083.3335-.1167.17151-.35541.31091-.72345.44116-1.09222.00671.00073.0105.00757.01733.00775.44093.01091.98269.00435 1.41418-.01227.10431.39886.21906.80658.35535 1.23492.04112.12991.18032.20452.31396.1626.13184-.04199.20459-.18262.1626-.31396-.56006-1.75928-.83789-3.23193-.875-4.63525C35.70309 28.88485 35.62302 28.78719 35.51169 28.7618zM34.48624 32.06429c.27666-.82919.4536-1.35285.78082-2.08813.0661.66211.1889 1.35175.35968 2.07849C35.26529 32.06551 34.82486 32.06923 34.48624 32.06429zM38.24265 28.82723c-.11719.02295-.20166.12549-.20215.24463l-.00732 2.59424c-.00049.00781-.00049.01514-.00049.02246l-.00488 1.74316c-.00049.13818.11133.25049.24902.25098h.00098c.1377 0 .24951-.11133.25-.24902l.00391-1.3916c.52002.09131 1.1709-.15381 1.46582-.52979.16895-.21436.52881-1.00098.479-1.3877C40.32674 28.96481 39.37736 28.60849 38.24265 28.82723zM39.60495 31.20272c-.19629.24951-.76025.43652-1.07178.32715l.00684-2.24268c.78767-.09331 1.3414.13086 1.44043.90186C40.00534 30.38192 39.73776 31.03377 39.60495 31.20272zM43.28171 28.86776l-1.62646.05566c-.1377.00488-.24561.12061-.24121.25879.00488.13477.11572.24121.25.24121.00293 0 .00586 0 .00879 0l.54572-.01868c-.20221 1.83404.1559 2.55074.0047 3.71442-.14722-.01062-.29602-.00598-.4425-.0224-.00732-.00098-.01465-.00146-.02197-.00195-.15332.00244-.24854.09717-.25928.23096-.00976.13428.0879.25244.2212.26758.43262.04883.87109.07373 1.30566.07324.04346 0 .0874 0 .13086-.00049.13818-.00146.24854-.11475.24707-.25293-.00146-.13721-.11328-.24707-.25-.24707-.00098 0-.00195 0-.00293 0-.14423.0014-.2868-.01776-.43073-.02179.11752-.96232-.17165-2.29986.00269-3.75684l.57599-.01971c.1377-.00488.24561-.12061.24121-.25879C43.53561 28.97078 43.41599 28.86385 43.28171 28.86776z"></path></g></svg>