<svg xmlns="http://www.w3.org/2000/svg" width="24" height="24" fill="none" viewBox="0 0 24 24" id="volleyball"><path fill="url(#paint0_linear_3283_1502)" fill-rule="evenodd" d="M1 12C1 5.92487 5.92487 1 12 1C18.0751 1 23 5.92487 23 12C23 18.0751 18.0751 23 12 23C5.92487 23 1 18.0751 1 12Z" clip-rule="evenodd"></path><path fill="#850026" d="M5.23733 20.6767C5.80554 21.1202 6.41842 21.5091 7.06811 21.8355L7.56553 21.4865C7.65569 21.4248 7.74482 21.3608 7.89662 21.2421C8.0963 21.0859 8.37211 20.8567 8.69377 20.553C9.33622 19.9464 10.1675 19.0368 10.9395 17.8122C10.9762 17.753 11.0128 17.6937 11.0492 17.6343C11.1061 17.5413 11.1802 17.4191 11.232 17.3294C12.0371 15.935 12.4767 14.6377 12.7158 13.6835C12.8131 13.295 12.8775 12.962 12.9199 12.7007C13.1122 12.6296 13.3587 12.5462 13.6534 12.4622C14.3258 12.2705 15.2424 12.0776 16.3314 12.019C16.3097 12.1247 16.286 12.2361 16.2603 12.3528C16.0614 13.2545 15.7443 14.4454 15.271 15.6287C14.3029 18.049 13.1651 19.9224 11.8304 21.2859L10.3035 22.8702C10.8563 22.9558 11.4228 23.0002 11.9996 23.0002C12.3365 23.0002 12.6699 22.985 12.9991 22.9554L13.2597 22.6849L13.2625 22.6821C14.8353 21.0744 16.0967 18.9496 17.128 16.3714C17.6547 15.0547 17.9999 13.7512 18.2134 12.7835C18.271 12.5222 18.3193 12.2841 18.3592 12.0753C19.2231 12.1699 19.9476 12.3407 20.4893 12.5031C20.8467 12.6102 21.1228 12.7132 21.3048 12.787C21.3927 12.8227 21.4794 12.8605 21.5652 12.9009L22.8955 13.5197C22.9641 13.023 22.9996 12.5157 22.9996 12.0002C22.9996 11.7831 22.9933 11.5676 22.9809 11.3537L22.433 11.0989C22.3346 11.0514 22.2349 11.0061 22.0567 10.9337C21.8224 10.8387 21.4869 10.7142 21.0637 10.5873C20.2182 10.3338 19.0152 10.0685 17.5631 10.012C17.4928 10.01 17.4224 10.0081 17.352 10.0064C17.2431 10.0039 17.1013 10.001 16.999 10.001C15.3946 10.001 14.0516 10.269 13.1051 10.5389C12.7179 10.6492 12.3956 10.7603 12.1471 10.8544C11.99 10.7242 11.795 10.5531 11.5754 10.3406C11.0735 9.85504 10.4473 9.15719 9.84975 8.23914C9.95217 8.20511 10.0606 8.16986 10.1745 8.13382C11.0549 7.8552 12.2448 7.53434 13.5062 7.35261C16.0863 6.98086 18.2787 7.02929 20.1268 7.50343L22.263 8.03436C21.9349 7.18582 21.5046 6.38816 20.9872 5.65646L20.6238 5.56614L20.6201 5.56519C18.4412 5.00688 15.9693 4.97707 13.2209 5.37305C11.8172 5.57529 10.5158 5.92804 9.57103 6.22703C9.31594 6.30776 9.08558 6.38498 8.8848 6.45486C8.53488 5.65932 8.32064 4.94616 8.19052 4.39537C8.10469 4.03205 8.05589 3.74122 8.02889 3.54647C8.00887 3.4021 8.00145 3.3318 7.99738 3.26349L7.8684 1.80225C7.19285 2.07618 6.55069 2.41529 5.94973 2.81178L6.00308 3.41617C6.01107 3.52389 6.02171 3.6327 6.04784 3.82116C6.0826 4.07188 6.14244 4.4249 6.2441 4.8552C6.44717 5.71476 6.81878 6.88995 7.49589 8.17595C7.52935 8.23788 7.56288 8.29978 7.59664 8.36155C7.64887 8.4571 7.71734 8.58136 7.7685 8.66998C8.5736 10.0645 9.47758 11.0938 10.1847 11.778C10.4728 12.0568 10.7293 12.2793 10.9347 12.4467C10.9004 12.6477 10.8498 12.9016 10.7757 13.1974C10.606 13.8749 10.3145 14.7661 9.81807 15.7428C9.73716 15.671 9.65217 15.5945 9.56372 15.5136C8.88224 14.8905 8.0094 14.0204 7.22134 13.0189C5.60964 10.9707 4.55554 9.04509 4.04199 7.20712L3.43372 5.09838C2.8713 5.79552 2.39225 6.56273 2.01172 7.38485L2.11689 7.74946C2.72274 9.91506 3.93226 12.0732 5.6496 14.2557C6.5266 15.3702 7.48281 16.3209 8.21412 16.9896C8.41155 17.1701 8.59359 17.331 8.75448 17.4699C8.24249 18.1677 7.73278 18.7097 7.32066 19.0989C7.04854 19.3558 6.82044 19.5447 6.66466 19.6666C6.5499 19.7563 6.49204 19.7981 6.43515 19.8365L5.23733 20.6767Z"></path><defs><linearGradient id="paint0_linear_3283_1502" x1="0" x2="24" y1="0" y2="24" gradientUnits="userSpaceOnUse"><stop offset=".083" stop-color="#FF6A6A"></stop><stop offset="1" stop-color="#F72257"></stop></linearGradient></defs></svg>