<svg id="SvgjsSvg1022" width="288" height="288" xmlns="http://www.w3.org/2000/svg" version="1.1" xmlns:xlink="http://www.w3.org/1999/xlink" ><defs id="SvgjsDefs1023"></defs><g id="SvgjsG1024"><svg xmlns="http://www.w3.org/2000/svg" viewBox="0 0 64 64" width="288" height="288"><circle cx="31.5" cy="32.5" r="27.491" fill="#ffffff" stroke="#000" stroke-width="2" class="colorFFF svgShape colorStroke000 svgStroke"></circle><circle cx="32.26" cy="32.5" r="25.781" fill="#339fd6" class="color339FD6 svgShape"></circle><path fill="none" stroke="#74CFEB" stroke-linecap="round" d="M55.774 28.04c.334 1.349.584 2.792.726 4.333m-8.058-17.176a26.327 26.327 0 0 1 7.022 10.782m-46.714.954a28.987 28.987 0 0 0-.725 4.334m8.42-17.4a26.334 26.334 0 0 0-7.022 10.782" class="colorStroke74CFEB svgStroke"></path><path fill="none" stroke="#000" stroke-width="2" d="M18.309 28.691h25.739v-2.42L31.3 19.573l-12.991 6.698zM23.554 31.767v9.119M31.3 31.767v9.119M39.045 31.767v9.119M43.968 44.748H18.471" class="colorStroke000 svgStroke"></path></svg></g></svg>