<svg xmlns="http://www.w3.org/2000/svg" enable-background="new 0 0 51 51" viewBox="0 0 51 51" id="car-accident"><path fill="#C7C7C7" d="M6.13789 34.48515v4.73441c0 1.13343.91881 2.05224 2.05224 2.05224h5.60985c1.13337 0 2.05218-.91881 2.05218-2.05224v-4.73441H6.13789zM35.52728 34.48515v4.73441c0 1.13343.91881 2.05224 2.05224 2.05224h5.60985c1.13337 0 2.05218-.91881 2.05218-2.05224v-4.73441H35.52728z"></path><path fill="#F6C560" d="M49.3086,29.80834c0.008,0.56098-0.03206,1.12193-0.12424,1.67891l-0.20656,1.60206
						c-0.09598,0.74442-0.63831,1.34946-1.3692,1.52024c-1.51237,0.35339-4.65513,0.93896-6.08011,1.20032
						c-0.48577,0.0891-0.97516,0.13309-1.46904,0.13309H11.32064c-0.49431,0-0.98415-0.04408-1.47034-0.13333
						c-1.42573-0.26173-4.5695-0.84803-6.08339-1.20203c-0.73208-0.17119-1.27475-0.778-1.36935-1.52385l-0.20248-1.59649
						c-0.09218-0.55697-0.13224-1.11793-0.12421-1.67891c0.00883-1.02542,0.0895-2.07191,0.18806-2.98576
						c0.1841-1.70685,1.13501-3.23241,2.57982-4.15963l3.35224-2.15133h34.99747l3.35224,2.15132
						c1.44482,0.92722,2.39574,2.45279,2.57983,4.15964C49.21909,27.73644,49.29977,28.78292,49.3086,29.80834z"></path><path d="M49.30801,29.80742c0.01001,0.56-0.02997,1.12-0.12,1.67999l-0.20996,1.60004
						c-0.10004,0.75-0.64001,1.34998-1.37,1.51996c-1.51001,0.36005-4.65002,0.94-6.08002,1.20001
						c-0.48999,0.09003-0.97003,0.14001-1.47003,0.14001h-28.74c-0.48999,0-0.97998-0.04999-1.46997-0.14001
						c-1.41998-0.26001-4.57001-0.84998-6.08002-1.20001c-0.72998-0.16998-1.27997-0.77997-1.37-1.51996l-0.14001-1.15002
						c1.41003,0.29004,3.17004,0.62,4.29999,0.83002c0.76001,0.14001,1.52002,0.21002,2.29004,0.21002h27.93
						c0.77002,0,1.53998-0.07001,2.28998-0.21002c1.55005-0.28998,4.29004-0.79999,5.67005-1.12
						c0.72998-0.16998,1.26996-0.78003,1.35999-1.52002l0.20996-1.60999c0.09003-0.54999,0.13-1.10999,0.13-1.67999
						c0-0.02002,0-0.04999-0.00995-0.08002c-0.02002-1.87-0.58002-3.65002-1.56-5.16998l1.66998,1.07996
						c1.45001,0.92004,2.39996,2.45001,2.58002,4.16003C49.21804,27.73741,49.29806,28.78746,49.30801,29.80742z" opacity=".05"></path><path fill="#E4F1FF" d="M43.18847,20.51163H8.19099l3.63429-8.55973c0.75732-1.37036,2.1998-2.22384,3.76653-2.22384h20.19586
					c1.5667,0,3.00921,0.85348,3.7665,2.22384L43.18847,20.51163z"></path><path d="M43.18801,20.50743H8.188l1.35004-3.17999h21.04999c2.97998,0,5-3.04999,3.83002-5.78998l-0.77002-1.81h2.14001
					c1.57001,0,3.01001,0.84998,3.76996,2.21997L43.18801,20.50743z" opacity=".05"></path><path fill="#E4F1FF" d="M44.50776,27.4111l-3.80847,1.99788c-0.15614,0.08255-0.33938,0.0923-0.50531,0.03172l-1.10466-0.40295
					c-0.18998-0.06861-0.33485-0.226-0.38839-0.42282c-0.04246-0.15608-0.02292-0.3254,0.05862-0.46785l0.5735-1.027
					c0.05344-0.09835,0.13369-0.17847,0.22813-0.23332l3.13866-1.83394c0.25119-0.14848,0.56951-0.10386,0.76924,0.10786
					l1.20097,1.26601C44.95612,26.72793,44.87496,27.22012,44.50776,27.4111z"></path><g><path fill="#E4F1FF" d="M6.50514,28.03422l4.1994,0.92852c0.17233,0.03868,0.35171,0,0.49592-0.10201l0.96016-0.6788
					c0.16531-0.11607,0.26378-0.30598,0.26378-0.50998c0-0.16177-0.0633-0.32005-0.17937-0.43612l-0.82299-0.84059
					c-0.07739-0.08088-0.17585-0.13715-0.28138-0.16529l-3.51005-0.9461c-0.28136-0.07737-0.57681,0.04924-0.71396,0.30598
					L6.09013,27.1268C5.89317,27.49259,6.10069,27.94629,6.50514,28.03422z"></path></g><g><path fill="#E4F1FF" d="M36.35607,30.89053l-0.68696,2.18712c-0.13186,0.42067-0.49785,0.72394-0.93755,0.76733
					l-3.37868,0.35859c-0.11657,0.01377-0.22903,0.00772-0.34136-0.01553l-10.18034-2.1069
					c-0.11235-0.02325-0.21798-0.06234-0.31948-0.12124l-2.95883-1.67018c-0.38636-0.21435-0.60191-0.63798-0.55597-1.07642
					l0.23759-2.28012c0.0692-0.6507,0.68234-1.09923,1.32336-0.96656l16.96723,3.5115
					C36.16608,29.61077,36.55083,30.26582,36.35607,30.89053z"></path></g><g><path fill="#F5BA42" d="M8.56126 17.18548l-.49068 2.80699c-.05133.29665-.31378.51916-.62185.51916H2.31975c-.42789 0-.73028-.41647-.59908-.82726l.39366-1.2095c.39366-1.2095 1.51761-2.02535 2.78986-2.02535h3.03518C8.33304 16.44952 8.62972 16.79753 8.56126 17.18548zM46.93064 19.94822c0-1.92675-1.56281-3.49112-3.48954-3.49871-.00066 0-.001 0-.001 0-.39368 0-.69037.34802-.62189.73596l.48996 2.80303c.05287.30245.31548.52315.62252.52315h2.99994V19.94822z"></path><path fill="#293C66" d="M49.86613,26.74194c-0.20898-1.93604-1.27295-3.65283-2.91992-4.71045l-1.19995-0.77002h1.18433
						c0.41406,0,0.75-0.33594,0.75-0.75V19.948c0-2.33301-1.90088-4.23926-4.24072-4.24854
						c-0.41113,0-0.79785,0.17969-1.06055,0.49268c-0.05072,0.06042-0.09058,0.12726-0.12964,0.19434l-2.03931-4.79736
						c-0.88965-1.61035-2.58447-2.61084-4.42285-2.61084h-20.1958c-1.83838,0-3.5332,1.00049-4.45703,2.68066L9.1284,16.38422
						c-0.0387-0.06622-0.07794-0.13232-0.12799-0.19208c-0.26318-0.31299-0.6499-0.49268-1.06104-0.49268H4.90422
						c-3.26752,0-3.75214,3.51805-3.89795,3.75635c-0.13477,0.4209-0.06006,0.88428,0.19971,1.23975
						c0.25879,0.35449,0.6748,0.56592,1.11377,0.56592h3.31354c-0.4801,0.43508-3.70595,1.64257-4.12018,5.48096
						c-0.3734,3.47951-0.13656,4.18864,0.14014,6.43555c0.13379,1.05127,0.91455,1.91943,1.94287,2.16016
						c0.47174,0.11023,1.1076,0.24353,1.79199,0.38171v3.49963c0,1.54492,1.25732,2.80225,2.80225,2.80225h5.60986
						c1.54492,0,2.80176-1.25732,2.80176-2.80225v-2.52637h18.17529v2.52637c0,1.54492,1.25732,2.80225,2.80225,2.80225h5.60986
						c1.54492,0,2.80225-1.25732,2.80225-2.80225V35.7207c0.68292-0.13776,1.31732-0.27069,1.78809-0.38062
						c1.02588-0.24023,1.80664-1.10596,1.94189-2.15527l0.20264-1.5752c0.09814-0.59082,0.14307-1.20068,0.13428-1.80762
						C50.0507,28.88062,49.98576,27.85132,49.86613,26.74194z M46.17424,19.76147h-2.14453l-0.44678-2.55762
						C44.96623,17.28149,46.08097,18.38599,46.17424,19.76147z M12.48137,12.3147c0.62598-1.13281,1.81787-1.83643,3.11035-1.83643
						h20.1958c1.29248,0,2.48438,0.70361,3.07617,1.7666l3.19141,7.5166H9.32365L12.48137,12.3147z M4.90422,17.19946
						l2.90088-0.04248l-0.45557,2.60449H2.4843C2.71873,19.35336,2.86868,17.19946,4.90422,17.19946z M15.10197,39.21948
						c0,0.71826-0.58398,1.30225-1.30176,1.30225H8.19035c-0.71826,0-1.30225-0.58398-1.30225-1.30225v-3.20367
						c2.80779,0.54193,3.42321,0.67731,4.43262,0.67731h3.78125V39.21948z M44.49162,39.21948
						c0,0.71826-0.58398,1.30225-1.30225,1.30225h-5.60986c-0.71826,0-1.30225-0.58398-1.30225-1.30225v-2.52637h3.78223
						c1.03455,0,1.6474-0.13983,4.43213-0.67682V39.21948z M48.44084,31.39136l-0.20654,1.60156
						c-0.05664,0.43848-0.36914,0.78662-0.79639,0.88623c-0.75203,0.17589-6.0847,1.31396-7.37842,1.31396H11.32072
						c-1.29928,0-6.81447-1.18293-7.38281-1.31592c-0.42822-0.1001-0.74072-0.44873-0.79639-0.8877
						c-0.28354-2.28777-0.48574-2.83493-0.13721-6.08643c0.36485-3.37821,3.49944-4.12979,5.40674-5.6416h34.55762l3.16699,2.03271
						c1.26318,0.81055,2.0791,2.12598,2.23926,3.60889c0.11426,1.06006,0.17627,2.04004,0.18359,2.9165
						C48.56633,30.34155,48.52775,30.86157,48.44084,31.39136z"></path><path fill="#293C66" d="M43.83293 24.81812c-.34766-.36963-.94922-.45313-1.38574-.19678l-3.13721 1.83301c-.42052.24482-.45798.57116-.98389 1.44385-.34154.59399-.0649 1.37143.5918 1.60938 1.01632.35238 1.16465.47217 1.49463.47217.18164 0 .36182-.04492.51904-.12793l3.80664-1.99707c.31543-.16406.52979-.45947.58838-.81055.05908-.35254-.04834-.70313-.29395-.96191L43.83293 24.81812zM44.27531 26.96802l-3.81006 1.99902c-.01563.0083-.0332.0127-.05273.0127l-1.15283-.41211c-.03711-.01318-.06543-.04443-.06348-.17676l.61719-1.07227 3.13867-1.83398c.00293 0 .15088.02051.1543.02051l1.20117 1.26563c.0376.04004.03662.08496.03271.1084C44.33586 26.90698 44.32121 26.94458 44.27531 26.96802zM11.78361 26.04956c-.13916-.14551-.31689-.25-.51318-.30273L7.76359 24.802c-.50146-.1377-1.04541.09766-1.2876.55078L5.65031 26.8894c-.16943.31396-.18115.68018-.03223 1.00488.14893.32373.43311.55273.7793.62842l4.19775.92773c.07959.01807.16113.02686.24219.02686.2334 0 .4585-.07178.65186-.2085l.9585-.67773c.29834-.20947.47656-.55273.47656-.91895 0-.29492-.11865-.58301-.32178-.78613L11.78361 26.04956zM11.87199 27.77368l-.95996.67871c-.02295.01611-.04883.0249-.07471.0249l-4.22559-.93115C6.56291 27.5354 6.5385 27.5022 6.52678 27.47681c-.00977-.02148-.02246-.06445.00391-.11328l.82666-1.53809c.01904-.03564.05469-.05957.12207-.05957.00684 0 .01367.00049.02148.00098l3.56397.97803.85938.92725C11.92424 27.71265 11.9052 27.75024 11.87199 27.77368zM35.62638 28.98853l-16.96679-3.51172c-.92285-.19238-1.82373.4751-1.92236 1.40479l-.2373 2.2793c-.06738.64111.25098 1.25586.80713 1.56445l2.95313 1.6665c.14648.08496.2998.14355.46924.1792l10.18213 2.10693c.35871.07405.25311.04593 3.86914-.33545.63672-.06299 1.17236-.50049 1.36523-1.11475l.6875-2.18848c.13477-.43262.08057-.9043-.14941-1.29395C36.45451 29.35571 36.06926 29.07983 35.62638 28.98853zM24.71995 32.37561l.91766-4.43304 2.80182.5799-.91724 4.43298L24.71995 32.37561zM17.49406 29.26489l.2373-2.27881c.0332-.30957.29102-.54297.6001-.54297.0415 0 .0835.00439.125.01318l2.41071.49896-.85803 4.14673-2.21381-1.24921C17.58732 29.73706 17.46916 29.50659 17.49406 29.26489zM20.92937 31.59064l.91718-4.43268 2.81152.58191-.91766 4.43304-2.80737-.58087C20.93168 31.59174 20.93071 31.59094 20.92937 31.59064zM28.50163 33.15808l.91724-4.43292 2.81152.58191-.91003 4.39679C31.15109 33.72768 31.25475 33.72372 28.50163 33.15808zM35.87883 30.74048l-.68701 2.18799c-.07275.23096-.27246.39551-.51318.41943l-2.31384.24524.84515-4.08331 2.21381.45819c.16943.03516.31104.13623.39893.28467C35.91056 30.4021 35.93058 30.57544 35.87883 30.74048z"></path></g><g><polygon fill="#3E5075" points="35.126 15.437 37.355 17.538 34.545 16.269 34.242 18.527 33.055 16.394 31.248 17.84 32.329 15.635 29.493 15.26 31.907 14.636 30.113 12.316 33.015 13.7 33.53 11.713 34.097 13.773 36.722 12.67 35.231 14.615 37.513 15.011"></polygon></g></svg>