<svg xmlns="http://www.w3.org/2000/svg" enable-background="new 0 0 70 70" viewBox="0 0 70 70" id="crypto-payment"><path fill="#5b52c5" d="M55.86,11.4v44.18c0,4.74-3.84,8.58-8.58,8.58H18.47c-4.73,0-8.57-3.84-8.57-8.58V11.4
				c0-4.73,3.84-8.57,8.57-8.57h28.81C52.02,2.83,55.86,6.67,55.86,11.4z"></path><path d="M47.28,64.67H18.47c-5,0-9.07-4.07-9.07-9.08V11.4c0-5,4.07-9.07,9.07-9.07h28.81c5.01,0,9.08,4.07,9.08,9.07v44.18
				C56.36,60.59,52.28,64.67,47.28,64.67z M18.47,3.33c-4.45,0-8.07,3.62-8.07,8.07v44.18c0,4.46,3.62,8.08,8.07,8.08h28.81
				c4.46,0,8.08-3.62,8.08-8.08V11.4c0-4.45-3.62-8.07-8.08-8.07H18.47z"></path><path fill="#8f90fb" d="M58.86,14.4v44.18c0,4.74-3.84,8.58-8.58,8.58H21.47c-4.73,0-8.57-3.84-8.57-8.58V14.4
				c0-4.73,3.84-8.57,8.57-8.57h28.81C55.02,5.83,58.86,9.67,58.86,14.4z"></path><path d="M50.28,67.67H21.47c-5,0-9.07-4.07-9.07-9.08V14.4c0-5,4.07-9.07,9.07-9.07h28.81c5.01,0,9.08,4.07,9.08,9.07v44.18
				C59.36,63.59,55.28,67.67,50.28,67.67z M21.47,6.33c-4.45,0-8.07,3.62-8.07,8.07v44.18c0,4.46,3.62,8.08,8.07,8.08h28.81
				c4.46,0,8.08-3.62,8.08-8.08V14.4c0-4.45-3.62-8.07-8.08-8.07H21.47z"></path><path fill="#fff" d="M52.86,14.41v42.17c0,1.42-1.16,2.58-2.58,2.58H21.47c-1.42,0-2.57-1.15-2.57-2.57V14.4
				c0-1.42,1.15-2.57,2.57-2.57h7.12c0.74,0,1.4,0.47,1.64,1.18l0.37,1.08c0.24,0.71,0.9,1.18,1.64,1.18h7.27
				c0.74,0,1.4-0.47,1.64-1.18l0.37-1.08c0.24-0.71,0.9-1.18,1.64-1.18h7.12C51.7,11.83,52.86,12.99,52.86,14.41z"></path><path d="M50.28,59.67H21.47c-1.69,0-3.07-1.38-3.07-3.07V14.4c0-1.69,1.38-3.07,3.07-3.07h7.12c0.96,0,1.81,0.61,2.11,1.52
				l0.37,1.08c0.17,0.5,0.64,0.84,1.17,0.84h7.27c0.53,0,1-0.34,1.17-0.84l0.37-1.08c0.31-0.91,1.15-1.52,2.11-1.52h7.12
				c1.7,0,3.08,1.38,3.08,3.08v42.17C53.36,58.28,51.98,59.67,50.28,59.67z M21.47,12.33c-1.14,0-2.07,0.93-2.07,2.07v42.19
				c0,1.14,0.93,2.07,2.07,2.07h28.81c1.15,0,2.08-0.93,2.08-2.08V14.42c0-1.15-0.93-2.08-2.08-2.08h-7.12c-0.53,0-1,0.34-1.17,0.84
				l-0.37,1.08c-0.31,0.91-1.16,1.52-2.11,1.52h-7.27c-0.96,0-1.81-0.61-2.11-1.52l-0.37-1.08c-0.17-0.5-0.64-0.84-1.17-0.84H21.47z
				"></path><g><path d="M38.79,12.33h-3.43c-0.28,0-0.5-0.22-0.5-0.5s0.22-0.5,0.5-0.5h3.43c0.28,0,0.5,0.22,0.5,0.5S39.07,12.33,38.79,12.33z"></path></g><g><path d="M33.46,12.33h-0.67c-0.28,0-0.5-0.22-0.5-0.5s0.22-0.5,0.5-0.5h0.67c0.28,0,0.5,0.22,0.5,0.5S33.73,12.33,33.46,12.33z"></path></g><g><path d="M41.46,63.08H29.26c-0.28,0-0.5-0.22-0.5-0.5s0.22-0.5,0.5-0.5h12.19c0.28,0,0.5,0.22,0.5,0.5S41.73,63.08,41.46,63.08z"></path></g><g><path fill="#495e66" d="M40.96,23.02v27.05c0,0.32-0.05,0.63-0.15,0.91c-0.38,1.12-1.44,1.93-2.7,1.93h-4.47
			c-1.58,0-2.85-1.27-2.85-2.84V23.02c0-1.58,1.27-2.85,2.85-2.85h4.47c0.91,0,1.72,0.42,2.23,1.08
			C40.73,21.74,40.96,22.35,40.96,23.02z"></path><path d="M38.11,53.41h-4.47c-1.85,0-3.35-1.5-3.35-3.34V23.02c0-1.85,1.5-3.35,3.35-3.35h4.47c1.04,0,2,0.46,2.63,1.27
			c0.47,0.59,0.72,1.31,0.72,2.08v27.05c0,0.38-0.06,0.75-0.18,1.08C40.82,52.5,39.55,53.41,38.11,53.41z M33.64,20.67
			c-1.3,0-2.35,1.05-2.35,2.35v27.05c0,1.29,1.05,2.34,2.35,2.34h4.47c1.01,0,1.9-0.64,2.23-1.59c0.08-0.23,0.12-0.49,0.12-0.75
			V23.02c0-0.53-0.18-1.04-0.51-1.46c-0.44-0.57-1.11-0.89-1.84-0.89H33.64z"></path></g><g><path fill="#fbe063" d="M60.1,36.05c0,8.52-6.9,15.42-15.42,15.42c-1.34,0-2.64-0.17-3.87-0.49c-4.42-1.14-8.07-4.19-10.02-8.22
							V29.34c1.88-3.88,5.35-6.86,9.55-8.09c1.38-0.4,2.83-0.62,4.34-0.62C53.2,20.63,60.1,27.53,60.1,36.05z"></path><path d="M44.68,51.97c-1.36,0-2.71-0.17-4-0.51c-4.53-1.17-8.3-4.26-10.34-8.49l-0.05-0.22l0.05-13.64
							c1.96-4.05,5.55-7.09,9.86-8.35c1.46-0.43,2.97-0.64,4.48-0.64c8.78,0,15.92,7.14,15.92,15.92S53.46,51.97,44.68,51.97z
							 M31.29,42.65c1.93,3.91,5.44,6.77,9.64,7.85c1.21,0.32,2.47,0.47,3.75,0.47c8.23,0,14.92-6.69,14.92-14.92
							s-6.69-14.92-14.92-14.92c-1.41,0-2.83,0.2-4.2,0.6c-4,1.17-7.34,3.98-9.19,7.73V42.65z"></path><g><circle cx="44.68" cy="36.05" r="10.16" fill="#f9a41a"></circle><path d="M44.68,46.71c-5.88,0-10.66-4.78-10.66-10.66c0-5.88,4.78-10.66,10.66-10.66c5.88,0,10.66,4.78,10.66,10.66
								C55.34,41.93,50.56,46.71,44.68,46.71z M44.68,26.4c-5.32,0-9.66,4.33-9.66,9.66s4.33,9.66,9.66,9.66s9.66-4.33,9.66-9.66
								S50.01,26.4,44.68,26.4z"></path></g><g><path d="M45.47,36.61H42.8c-0.28,0-0.5-0.22-0.5-0.5v-4.34c0-0.28,0.22-0.5,0.5-0.5h2.67c1.47,0,2.67,1.2,2.67,2.67
					c0,0.72-0.28,1.39-0.79,1.89C46.85,36.33,46.18,36.61,45.47,36.61z M43.3,35.61h2.17c0.44,0,0.86-0.17,1.18-0.49
					c0.32-0.31,0.49-0.73,0.49-1.18c0-0.92-0.75-1.67-1.67-1.67H43.3V35.61z"></path><path d="M45.47,40.95H42.8c-0.28,0-0.5-0.22-0.5-0.5v-4.34c0-0.28,0.22-0.5,0.5-0.5h2.67c1.47,0,2.67,1.2,2.67,2.67
					c0,0.72-0.28,1.39-0.79,1.89C46.85,40.67,46.18,40.95,45.47,40.95z M43.3,39.95h2.17c0.44,0,0.86-0.17,1.18-0.49
					c0.32-0.31,0.49-0.73,0.49-1.18c0-0.92-0.75-1.67-1.67-1.67H43.3V39.95z"></path><path d="M42.8 40.95h-1.07c-.28 0-.5-.22-.5-.5s.22-.5.5-.5h1.07c.28 0 .5.22.5.5S43.07 40.95 42.8 40.95zM42.8 32.27h-1.07c-.28 0-.5-.22-.5-.5s.22-.5.5-.5h1.07c.28 0 .5.22.5.5S43.07 32.27 42.8 32.27zM44.31 32.16c-.28 0-.5-.22-.5-.5v-1.07c0-.28.22-.5.5-.5s.5.22.5.5v1.07C44.81 31.94 44.59 32.16 44.31 32.16zM44.55 42.01c-.28 0-.5-.22-.5-.5v-1.07c0-.28.22-.5.5-.5s.5.22.5.5v1.07C45.05 41.79 44.83 42.01 44.55 42.01z"></path></g></g></svg>