<svg xmlns="http://www.w3.org/2000/svg" width="100" height="100" id="input"><defs><clipPath id="a"><path fill="#9777a8" d="M-245.153 645.424a136.678 157.288 0 1 1-273.355 0 136.678 157.288 0 1 1 273.355 0z" transform="matrix(.20893 0 0 .18155 130.14 -71.679)"></path></clipPath></defs><path fill="#9777a8" d="M95 50a45 45 0 1 1-90 0 45 45 0 1 1 90 0z"></path><g clip-path="url(#a)" transform="translate(-29.369 -21.699) scale(1.57587)"><path fill="#121314" d="M41.687 33.667c-4.567.144-8.157 1.82-8.157 3.906 0 2.181 3.917 3.937 8.782 3.937h14.812c4.865 0 8.781-1.756 8.781-3.937 0-1.847-2.812-3.352-6.625-3.781l-1.875 1.312-13.75.031-1.968-1.468z"></path><path fill="#3b3c3d" d="M37.655 36.052c-3.938 0-7.292 1.933-8.5 4.594-1.484 2.207-3.228 6.934-4.468 12.344-1.51 6.588-1.746 11.941-.625 12.843.006.006.025-.005.031 0 .02.015.042.05.062.063.02.012.04.021.063.031.024.01.038.025.062.031.014.004.049-.003.063 0 .011.002.02 0 .031 0 .022.005.04.028.063.032v.03l.093-.03c1.625.111 6.256-2.435 11.47-6.407a72.729 72.729 0 0 0 5.937-5.03h16.625a73.024 73.024 0 0 0 5.531 4.968c3.788 3.07 7.287 5.345 9.5 6.281.11.047.208.085.312.125.613.236 1.113.358 1.47.344l.062.062v-.062c.074-.008.159-.041.218-.063.025-.009.072-.019.094-.03.025-.014.04-.015.063-.032.017-.013.048-.047.062-.063 1.105-.964 1.013-6.262-.281-12.812-.991-5.016-2.45-9.475-3.781-11.906-.883-3.038-4.456-5.313-8.75-5.313-.632 0-1.25.063-1.844.156h-2.813l-2.218 3.75-11.688.063-2.469-3.813H39.5a11.935 11.935 0 0 0-1.845-.156z"></path><path fill="#3b3c3d" stroke="#fcd116" stroke-linecap="round" stroke-linejoin="round" stroke-width="1.394" d="M41.103 47.096a5.457 5.457 0 1 1-10.915 0 5.457 5.457 0 0 1 10.915 0z"></path><path fill="#e74c3c" stroke="#000" d="M63.309 43.622a2.062 2.062 0 1 1-1.204-3.945 2.062 2.062 0 0 1 1.204 3.945z"></path><path fill="#4bb7c0" stroke="#000" d="M68.678 46.955a2.062 2.062 0 1 1-1.203-3.945 2.062 2.062 0 0 1 1.203 3.945z"></path><path fill="#fcd116" stroke="#000" d="M61.2 49.28a2.062 2.062 0 1 1-1.204-3.945 2.062 2.062 0 0 1 1.203 3.944z"></path><path fill="#46b24c" stroke="#000" d="M66.665 52.922a2.062 2.062 0 1 1-1.204-3.945 2.062 2.062 0 0 1 1.204 3.945z"></path><path fill="#595959" d="M56.245 43.024a1.729 1.729 0 1 1-3.458 0 1.729 1.729 0 0 1 3.458 0z"></path><path d="M55.668 43.024a1.153 1.153 0 1 1-2.305 0 1.153 1.153 0 0 1 2.305 0z"></path><path fill="#595959" d="M55.175 43.024a.659.659 0 1 1-1.317 0 .659.659 0 0 1 1.317 0zM48.556 43.024a1.729 1.729 0 1 1-3.458 0 1.729 1.729 0 0 1 3.458 0z"></path><path d="M47.98 43.024a1.153 1.153 0 1 1-2.305 0 1.153 1.153 0 0 1 2.305 0z"></path><path fill="#595959" d="M47.486 43.024a.659.659 0 1 1-1.317 0 .659.659 0 0 1 1.317 0z"></path><path fill="#fcd116" d="M34.928 43.504v2.873h-2.874v1.437h2.874v2.874h1.437v-2.874h2.873v-1.437h-2.873v-2.873h-1.437z"></path></g></svg>