<svg xmlns="http://www.w3.org/2000/svg" viewBox="0 0 512 512" id="business-trending-graph"><rect width="70.38" height="145.73" x="99.72" y="252.06" fill="#ffcd3e" rx="35.19"></rect><rect width="70.38" height="219.41" x="180.45" y="178.38" rx="35.19"></rect><rect width="70.38" height="183.19" x="261.17" y="214.6" fill="#ffcd3e" rx="35.19"></rect><rect width="70.38" height="283.58" x="341.9" y="114.21" rx="35.19"></rect><path fill="#fff" d="M127 360.4a9 9 0 0 1-6.43-15.4l99.48-99.47a9 9 0 0 1 12.76 0l45 45 100.78-100.86a9 9 0 1 1 12.77 12.77l-107.2 107.19a9 9 0 0 1-12.76 0l-45-45-93.09 93.09a9 9 0 0 1-6.31 2.68Z"></path><path fill="#fff" d="M391 254a9 9 0 0 1-9-9v-45.55h-46.37a9 9 0 0 1 0-18.06H391a9 9 0 0 1 9 9V245a9 9 0 0 1-9 9Z"></path></svg>