<svg xmlns="http://www.w3.org/2000/svg" viewBox="0 0 1010 961.746" id="hotel"><path fill="#5FD4AF" d="M909.297 815.418l-5.74-3.172c-112.391-62.157-112.391-179.014 0-241.127l5.74-3.192 5.74 3.192c112.37 62.113 112.37 178.97 0 241.127l-5.74 3.172z"></path><path fill="#4D4D4D" d="M909.297 827.626l-10.905-6.03c-57.083-31.57-89.82-78.925-89.82-129.946.011-51.008 32.747-98.344 89.82-129.88l10.905-6.075 10.936 6.084c57.03 31.527 89.757 78.863 89.767 129.87.01 51.01-32.715 98.378-89.787 129.946l-10.916 6.031zm0-247.468l-.543.3c-50.08 27.676-78.799 68.198-78.81 111.192 0 43.006 28.708 83.549 78.79 111.244l.563.313.574-.313c50.06-27.686 78.768-68.238 78.757-111.244-.01-42.994-28.708-83.516-78.757-111.18l-.574-.312z"></path><path fill="#4D4D4D" d="M909.297 954.712a10.681 10.681 0 0 1-10.686-10.687V738.277a10.68 10.68 0 0 1 10.686-10.686 10.68 10.68 0 0 1 10.685 10.686v205.748c0 5.906-4.779 10.687-10.685 10.687z"></path><path fill="#4D4D4D" d="M909.297 748.962a10.654 10.654 0 0 1-7.556-3.128l-38.57-38.57c-4.174-4.177-4.174-10.938 0-15.112 4.175-4.174 10.936-4.174 15.111 0l38.57 38.57c4.174 4.174 4.174 10.936 0 15.111a10.65 10.65 0 0 1-7.555 3.13z"></path><path fill="#4D4D4D" d="M909.297 748.962a10.654 10.654 0 0 1-7.556-3.128c-4.174-4.176-4.174-10.938 0-15.112l38.591-38.57c4.175-4.174 10.937-4.174 15.111 0 4.174 4.174 4.174 10.935 0 15.111l-38.591 38.57a10.65 10.65 0 0 1-7.555 3.13z"></path><g><path fill="#4D4D4D" d="M909.297 748.962a10.68 10.68 0 0 1-10.686-10.685v-64.324c0-5.907 4.78-10.688 10.686-10.688s10.685 4.781 10.685 10.688v64.324a10.68 10.68 0 0 1-10.685 10.685z"></path></g><g><path fill="#5FD4AF" d="M100.683 815.418l-5.72-3.172c-112.37-62.157-112.37-179.014 0-241.127l5.72-3.192 5.76 3.192c112.371 62.113 112.371 178.97 0 241.127l-5.76 3.172z"></path><path fill="#4D4D4D" d="M100.662 827.626l-10.884-6.04C32.716 790.025-.01 742.66 0 691.65c.01-51.008 32.736-98.344 89.799-129.88l10.863-6.075 10.957 6.074c57.052 31.537 89.779 78.873 89.788 129.88.011 51.01-32.715 98.378-89.788 129.946l-10.957 6.031zm.042-247.468l-.532.29c-50.09 27.686-78.79 68.208-78.8 111.202-.01 43.006 28.698 83.559 78.769 111.244l.563.313.584-.323c50.05-27.676 78.758-68.228 78.747-111.234-.01-42.994-28.708-83.516-78.757-111.18l-.574-.312z"></path><path fill="#4D4D4D" d="M100.683 954.712c-5.907 0-10.686-4.78-10.686-10.687V738.277a10.68 10.68 0 0 1 10.686-10.686 10.68 10.68 0 0 1 10.686 10.686v205.748c0 5.906-4.78 10.687-10.686 10.687z"></path><path fill="#4D4D4D" d="M100.683 748.962a10.654 10.654 0 0 1-7.555-3.128l-38.57-38.57c-4.174-4.177-4.174-10.938 0-15.112 4.173-4.174 10.936-4.174 15.11 0l38.57 38.57c4.175 4.174 4.175 10.936 0 15.111a10.654 10.654 0 0 1-7.555 3.13z"></path><path fill="#4D4D4D" d="M100.683 748.962a10.654 10.654 0 0 1-7.555-3.128c-4.175-4.176-4.175-10.948 0-15.112l38.611-38.57c4.175-4.174 10.937-4.174 15.112 0 4.173 4.174 4.173 10.947 0 15.111l-38.613 38.57a10.654 10.654 0 0 1-7.555 3.13z"></path><g><path fill="#4D4D4D" d="M100.683 748.962a10.68 10.68 0 0 1-10.686-10.685v-64.324c0-5.907 4.78-10.688 10.686-10.688a10.681 10.681 0 0 1 10.686 10.688v64.324a10.68 10.68 0 0 1-10.686 10.685z"></path></g></g><g><path fill="#4D4D4D" d="M978.715 961.746H31.265a10.68 10.68 0 0 1-10.686-10.688 10.68 10.68 0 0 1 10.687-10.685h947.449a10.68 10.68 0 0 1 10.685 10.685 10.68 10.68 0 0 1-10.685 10.688z"></path></g><g><path fill="#CCC" d="M252.083 130.57h499.532v49.955H252.083z"></path><path fill="#4D4D4D" d="M751.615 191.211H252.083a10.68 10.68 0 0 1-10.687-10.686V130.57a10.68 10.68 0 0 1 10.687-10.686h499.532a10.68 10.68 0 0 1 10.686 10.686v49.955a10.68 10.68 0 0 1-10.686 10.686zM262.77 169.839h478.16v-28.583h-478.16v28.583z"></path><path fill="#FF9554" d="M282.054 10.686h439.59V130.57h-439.59z"></path><path fill="#4D4D4D" d="M721.644 141.256h-439.59a10.68 10.68 0 0 1-10.686-10.686V10.686A10.68 10.68 0 0 1 282.054 0h439.59a10.68 10.68 0 0 1 10.686 10.686V130.57a10.68 10.68 0 0 1-10.686 10.686zM292.74 119.884h418.217V21.372H292.74v98.512z"></path><g><path fill="#FFF" d="M232.088 183.855h539.521v741.031H232.088z"></path><path fill="#4D4D4D" d="M771.61 935.572H232.087a10.68 10.68 0 0 1-10.686-10.686V183.855a10.68 10.68 0 0 1 10.686-10.687h539.521a10.68 10.68 0 0 1 10.686 10.687v741.031a10.68 10.68 0 0 1-10.686 10.686zM242.773 914.2h518.15V194.54h-518.15V914.2z"></path><path fill="#CCC" d="M291.53 277.336h48.963v48.985H291.53z"></path><path fill="#4D4D4D" d="M351.18 337.007h-70.336V266.65h70.336v70.357zm-48.964-21.372h27.592v-27.613h-27.592v27.613z"></path><path fill="#CCC" d="M539.208 277.336h48.943v48.985h-48.943z"></path><path fill="#4D4D4D" d="M598.837 337.007h-70.314V266.65h70.314v70.357zm-48.942-21.372h27.57v-27.613h-27.57v27.613z"></path><path fill="#CCC" d="M662.057 277.336h49.026v48.985h-49.026z"></path><path fill="#4D4D4D" d="M721.769 337.007H651.37V266.65h70.399v70.357zm-49.027-21.372h27.655v-27.613h-27.655v27.613z"></path><path fill="#CCC" d="M291.53 376.183h48.963v48.953H291.53z"></path><path fill="#4D4D4D" d="M351.18 435.822h-70.336v-70.326h70.336v70.326zm-48.964-21.372h27.592v-27.582h-27.592v27.582z"></path><path fill="#CCC" d="M414.419 376.183h48.985v48.953H414.42z"></path><path fill="#4D4D4D" d="M474.09 435.822h-70.357v-70.326h70.357v70.326zm-48.984-21.372h27.612v-27.582h-27.613v27.582z"></path><path fill="#CCC" d="M291.53 474.977h48.963v48.973H291.53z"></path><path fill="#4D4D4D" d="M351.18 534.637h-70.336V464.29h70.336v70.347zm-48.964-21.372h27.592v-27.603h-27.592v27.603z"></path><path fill="#CCC" d="M414.419 474.977h48.985v48.973H414.42z"></path><path fill="#4D4D4D" d="M474.09 534.637h-70.357V464.29h70.357v70.347zm-48.984-21.372h27.612v-27.603h-27.613v27.603z"></path><g><path fill="#CCC" d="M662.057 474.977h49.026v48.973h-49.026z"></path><path fill="#4D4D4D" d="M721.769 534.637H651.37V464.29h70.399v70.347zm-49.027-21.372h27.655v-27.603h-27.655v27.603z"></path></g><g><path fill="#CCC" d="M414.419 573.75h48.985v49.046H414.42z"></path><path fill="#4D4D4D" d="M474.09 633.482h-70.357v-70.418h70.357v70.418zm-48.984-21.371h27.612v-27.676h-27.613v27.676z"></path></g><g><path fill="#CCC" d="M539.208 573.75h48.943v49.046h-48.943z"></path><path fill="#4D4D4D" d="M598.837 633.482h-70.314v-70.418h70.314v70.418zm-48.942-21.371h27.57v-27.676h-27.57v27.676z"></path></g><g><path fill="#CCC" d="M662.057 573.75h49.026v49.046h-49.026z"></path><path fill="#4D4D4D" d="M721.769 633.482H651.37v-70.418h70.399v70.418zm-49.027-21.371h27.655v-27.676h-27.655v27.676z"></path></g><g><path fill="#CCC" d="M291.53 672.617h48.963v48.963H291.53z"></path><path fill="#4D4D4D" d="M351.18 732.267h-70.336v-70.336h70.336v70.336zm-48.964-21.373h27.592v-27.592h-27.592v27.592z"></path></g><g><path fill="#CCC" d="M662.057 672.617h49.026v48.963h-49.026z"></path><path fill="#4D4D4D" d="M721.769 732.267H651.37v-70.336h70.399v70.336zm-49.027-21.373h27.655v-27.592h-27.655v27.592z"></path></g><path fill="#FFF" d="M420.618 697.39h172.23v253.502h-172.23z"></path><path fill="#ECECED" d="M421.37 742.472h169.474V903.37H421.369z"></path><g><path fill="#4D4D4D" d="M592.848 961.578h-172.23a10.68 10.68 0 0 1-10.686-10.686V697.39a10.68 10.68 0 0 1 10.686-10.685h172.23a10.68 10.68 0 0 1 10.685 10.685v253.502a10.68 10.68 0 0 1-10.685 10.686zm-161.544-21.371H582.16V708.076H431.304v232.13z"></path></g><g><path fill="#FFF" d="M506.732 749.402V898.88"></path><path fill="#4D4D4D" d="M506.732 909.568c-5.906 0-10.685-4.781-10.685-10.688V749.402a10.68 10.68 0 0 1 10.685-10.686 10.68 10.68 0 0 1 10.687 10.686V898.88c0 5.907-4.78 10.688-10.687 10.688z"></path></g><g><path fill="#FFF" d="M430.365 742.847h155.991"></path><path fill="#4D4D4D" d="M586.356 753.535h-155.99a10.68 10.68 0 0 1-10.687-10.688 10.68 10.68 0 0 1 10.686-10.685h155.991a10.68 10.68 0 0 1 10.686 10.685 10.68 10.68 0 0 1-10.686 10.688z"></path></g><g><path fill="#FFF" d="M430.365 905.373h155.991"></path><path fill="#4D4D4D" d="M586.356 916.058h-155.99a10.68 10.68 0 0 1-10.687-10.685 10.68 10.68 0 0 1 10.686-10.688h155.991a10.68 10.68 0 0 1 10.686 10.688 10.68 10.68 0 0 1-10.686 10.685z"></path></g></g><g fill="#4D4D4D"><path d="M394.34 104.669V79.812h-28.509v24.857h-14.234V41.627h14.234v26.309h28.51V41.627h14.255v63.042H394.34zM486.509 73.153c0 18.2-14.569 32.153-33.854 32.153-19.263 0-33.853-13.88-33.853-32.153 0-18.367 14.59-31.974 33.853-31.974 19.285 0 33.854 13.68 33.854 31.974zm-53.117 0c0 11.073 8.91 19.703 19.45 19.703s19.098-8.63 19.098-19.703c0-11.092-8.557-19.567-19.097-19.567-10.644 0-19.451 8.475-19.451 19.567zM522.073 53.69v50.979h-14.192V53.691h-19.202V41.627h52.7V53.69h-19.306zM564.087 53.44v13.671h30.472v11.813h-30.472v13.931h34.792v11.814h-49.006V41.627h47.983V53.44h-33.77zM652.143 92.24v12.429H610.9V41.627h14.214V92.24h27.029z"></path></g></g></svg>